<?xml version="1.0" encoding="UTF-8"?> <!-- Generator: Adobe Illustrator 26.0.3, SVG Export Plug-In . SVG Version: 6.00 Build 0) --> <svg xmlns="http://www.w3.org/2000/svg" xmlns:xlink="http://www.w3.org/1999/xlink" id="Capa_1" x="0px" y="0px" viewBox="0 0 27.9 27.9" style="enable-background:new 0 0 27.9 27.9;" xml:space="preserve"> <style type="text/css"> .st0{fill:#FF7A00;} .st1{fill:#3D55CC;} </style> <path class="st0" d="M27.6,6.8L14.2,20.2c-0.3,0.3-0.9,0.3-1.2,0l-0.3-0.3l0,0l-0.3-0.3l-1.3-1.3l0,0l-5.8-5.9 c-0.3-0.3-0.3-0.9,0-1.2l1.8-1.8c0.3-0.3,0.9-0.3,1.2,0l5.2,5.3l11-11c0.3-0.3,0.9-0.3,1.2,0l1.8,1.8C27.9,5.9,27.9,6.4,27.6,6.8z"></path> <g> <path class="st1" d="M21.8,22.6c0,1-0.8,1.8-1.8,1.8H3.5c-1,0-1.8-0.8-1.8-1.8V5.2c0-1,0.8-1.8,1.8-1.8H20c1,0,1.8,0.8,1.8,1.8l0,0 l1.3-1.2c0.2-1.4-1.2-2.4-3-2.4H3.5C1.6,1.7,0,3.3,0,5.2v17.4c0,2,1.6,3.5,3.5,3.5H20c2,0,3.5-1.6,3.5-3.5V12.3l-1.8,1.9L21.8,22.6 L21.8,22.6z"></path> </g> </svg> 