<?xml version="1.0" encoding="UTF-8"?> <!-- Generator: Adobe Illustrator 26.0.3, SVG Export Plug-In . SVG Version: 6.00 Build 0) --> <svg xmlns="http://www.w3.org/2000/svg" xmlns:xlink="http://www.w3.org/1999/xlink" id="Layer_1" x="0px" y="0px" viewBox="0 0 599 421" style="enable-background:new 0 0 599 421;" xml:space="preserve"> <style type="text/css"> .st0{fill-rule:evenodd;clip-rule:evenodd;fill:#F4F5FA;} </style> <path class="st0" d="M64.8,197.2H55v43h29.7v-18.1h67v18.1h27.3v-43h-7.6V58.8H79.5v50.6c0,21.8-1.1,38.8-3.3,50.9 C74.1,172.5,70.3,184.8,64.8,197.2z M140.8,197.2H95.2c5.1-11,8.8-22.1,11.1-33.2c2.3-11.2,3.5-25.7,3.5-43.5V83.8h31V197.2z M214.4,58.9h-31.2l41.1,143.3c-3,8.8-7.6,13.2-13.7,13.2c-1.2,0-2.4-0.1-3.5-0.3c-1-0.2-2.1-0.5-3.2-0.9c-1-0.4-1.6-0.6-1.9-0.7 v23.8c6.1,2,12.3,3,18.6,3c7.6,0,13.9-2.7,19.1-8c5.2-5.4,9.9-14.5,14.1-27.2l47.4-146.2h-31.5l-28.5,97.5L214.4,58.9z M269.3,238 l51.6-179.1h50.5v113.4l32.7-113.4h51.4V238h-30.3V74.1H425L375.7,238h-28V74.6h-0.2L300.3,238H269.3z M506.2,58.9L465.7,238h30.7 l11.9-54h34.8l9.8,54H584L547.5,58.9H506.2z M539.4,159.8h-27.2L527,79.1L539.4,159.8z M55.2,417.1V253.4h86v23.4H86v39.7h25.7 c8,0,15.3,2.4,21.7,7.3c6.4,4.9,11.3,11,14.6,18.3c3.4,7.3,5,14.9,5,22.7c0,15.9-3.4,28.7-10.3,38.2c-6.8,9.4-16.2,14.2-28.3,14.2 H55.2z M86,393.8h17.7c5.9,0,10.4-2,13.4-6c3.1-4,4.6-10.4,4.6-19.4c0-8.2-1.6-14.7-4.8-19.6c-3.1-4.9-7.5-7.4-13.1-7.4H86V393.8z M168.6,253.4v163.7h33.3l44.8-118.8h0.2c-2.6,11.9-3.8,30.8-3.8,56.9v61.9h28.7V253.4h-33.2l-44.8,119.1h-0.2 c2.6-11.7,3.8-31,3.8-57.9v-61.2H168.6z M291.9,417.1V253.4h30.8v69.9h40.6v-69.9H394v163.7h-30.7v-68.9h-40.6v68.9H291.9z M414.1,253.4v163.7h30.8V278.4h38.6l12.7-25H414.1z M492.2,306.3v59.4c0,36.8,17.8,55.2,53.3,55.2c8.2,0,15.4-1,21.6-2.9 c6.2-1.8,11.7-4.8,16.5-9s8.4-9.8,10.9-17.1c2.5-7.3,3.8-16.1,3.8-26.3v-59.4c0-10.2-1.3-19-3.8-26.3c-2.4-7.4-6.1-13.2-10.9-17.5 c-4.7-4.3-10.2-7.4-16.5-9.3c-6.2-2-13.4-3-21.6-3c-8.1,0-15.3,1-21.6,3c-6.3,2-11.9,5.2-16.7,9.5c-4.8,4.3-8.5,10.1-11.1,17.5 C493.5,287.5,492.2,296.2,492.2,306.3z M545.5,395.9c-14.3,0-21.5-8.8-21.5-26.4v-66.9c0-18.3,7.2-27.5,21.5-27.5 c6.7,0,11.8,2.5,15.4,7.4c3.7,4.9,5.5,11.7,5.5,20.5v66.5c0,8.6-1.8,15.1-5.4,19.6C557.4,393.7,552.2,395.9,545.5,395.9z"></path> </svg> 