<?xml version="1.0" encoding="UTF-8"?> <svg xmlns="http://www.w3.org/2000/svg" width="599" height="421" viewBox="0 0 599 421" fill="none"> <circle cx="70" cy="70" r="70" fill="#F2B600"></circle> <path fill-rule="evenodd" clip-rule="evenodd" d="M64.7504 197.231H55V240.276H84.6894V222.139H151.737V240.276H179.073V197.231H171.457V58.8218H79.5403V109.444C79.5403 131.289 78.4448 148.263 76.2537 160.367C74.1356 172.47 70.3012 184.758 64.7504 197.231ZM140.782 197.231H95.2067C100.319 186.234 104.008 175.164 106.272 164.02C108.609 152.802 109.778 138.3 109.778 120.514V83.8405H140.782V197.231ZM214.354 58.9015H183.131L224.254 202.226C221.259 211.008 216.695 215.399 210.559 215.399C209.318 215.399 208.149 215.289 207.054 215.067C206.031 214.846 204.972 214.551 203.877 214.182C202.854 213.813 202.233 213.591 202.014 213.517V237.318C208.076 239.311 214.284 240.307 220.639 240.307C228.234 240.307 234.589 237.65 239.701 232.337C244.887 226.949 249.598 217.872 253.834 205.104L301.232 58.9015H269.732L241.279 156.39L214.354 58.9015ZM269.285 238.009L320.89 58.9015H371.413V172.261L404.161 58.9015H455.595V238.009H425.261V74.1297H425.042L375.694 238.009H347.679V74.6212H347.46L300.342 238.009H269.285ZM506.24 58.9015L465.731 238.009H496.463L508.348 184.053H543.186L552.989 238.009H584.05L547.542 58.9015H506.24ZM539.352 159.809H512.182L526.972 79.1113L539.352 159.809ZM55.2228 417.117V253.388H141.224V276.746H86.0078V316.488H111.753C119.787 316.488 127.018 318.924 133.445 323.795C139.872 328.666 144.729 334.754 148.016 342.061C151.376 349.367 153.056 356.932 153.056 364.755C153.056 380.696 149.623 393.426 142.757 402.947C135.965 412.393 126.543 417.117 114.492 417.117H55.2228ZM86.0078 393.759H103.756C109.672 393.759 114.127 391.766 117.121 387.781C120.189 383.795 121.723 377.338 121.723 368.408C121.723 360.216 120.116 353.684 116.902 348.813C113.762 343.869 109.38 341.396 103.756 341.396H86.0078V393.759ZM168.577 253.388V417.117H201.882L246.69 298.333H246.909C244.353 310.215 243.075 329.182 243.075 355.234V417.117H271.778V253.388H238.583L193.775 372.504H193.556C196.112 360.769 197.39 341.47 197.39 314.606V253.388H168.577ZM291.884 417.117V253.388H322.669V323.29H363.314V253.388H393.989V417.117H363.314V348.198H322.669V417.117H291.884ZM414.095 253.388V417.117H444.88V278.407H483.5L496.219 253.388H414.095ZM492.195 306.271V365.681C492.195 402.48 509.967 420.879 545.509 420.879C553.711 420.879 560.916 419.919 567.123 417.998C573.33 416.15 578.835 413.158 583.638 409.02C588.441 404.882 592.062 399.192 594.5 391.95C597.013 384.635 598.269 375.878 598.269 365.681V306.271C598.269 296.074 597.013 287.317 594.5 280.002C592.062 272.613 588.441 266.775 583.638 262.489C578.909 258.203 573.404 255.1 567.123 253.179C560.916 251.184 553.711 250.186 545.509 250.186C537.455 250.186 530.25 251.184 523.896 253.179C517.615 255.174 512.036 258.351 507.159 262.711C502.356 266.997 498.661 272.834 496.075 280.224C493.488 287.539 492.195 296.222 492.195 306.271ZM545.509 395.94C531.174 395.94 524.006 387.147 524.006 369.561V302.613C524.006 284.288 531.174 275.125 545.509 275.125C552.16 275.125 557.295 277.6 560.916 282.551C564.611 287.428 566.458 294.263 566.458 303.057V369.561C566.458 378.132 564.648 384.672 561.027 389.179C557.406 393.687 552.234 395.94 545.509 395.94Z" fill="#F4F5FA"></path> </svg> 